<?xml version="1.0" encoding="utf-8"?>
<!-- Generator: Adobe Illustrator 26.4.0, SVG Export Plug-In . SVG Version: 6.00 Build 0)  -->
<svg version="1.1" id="Layer_1" xmlns="http://www.w3.org/2000/svg" xmlns:xlink="http://www.w3.org/1999/xlink" x="0px" y="0px"
	 viewBox="0 0 925.65 400" style="enable-background:new 0 0 925.65 400;" xml:space="preserve">
<style type="text/css">
	.st0{display:none;}
	.st1{display:inline;}
	.st2{fill:none;stroke:#FFFFFF;stroke-width:4;stroke-miterlimit:10;}
	.st3{fill:#FFFFFF;}
	.st4{fill:none;stroke:#FFFFFF;stroke-width:10;stroke-miterlimit:10;}
	.st5{fill:none;stroke:#000000;stroke-width:10;stroke-miterlimit:10;}
	.st6{font-family:'LEMONMILK-Medium';}
	.st7{font-size:53.0611px;}
	.st8{letter-spacing:3;}
	.st9{font-size:67.0245px;}
	.st10{letter-spacing:4;}
</style>
<rect y="-638.69" class="st0" width="925.65" height="500"/>
<g id="DESIGN2-B" class="st0">
	<g id="XMLID_00000060748918376519124550000004854163851397549202_" class="st1">
		<polyline id="XMLID_00000028319857965589777010000002191736406715971736_" class="st2" points="306.23,-424.1 392.03,-483.54 
			427.19,-462.44 483.46,-497.6 520.06,-465.86 532.69,-476.51 539.72,-469.47 553.79,-476.51 619.42,-429.55 		"/>
		<path id="XMLID_00000102522196261140245560000010329651912721935025_" class="st3" d="M431.94-444.93l2.08,9.38l-42.2-33.6
			c0,0,16.41,37.25,16.41,38.81c0,1.56,0,16.67,0,16.67l7.55-8.6l29.85,17.42v-7.03l28.13,7.03L431.94-444.93z"/>
		<path id="XMLID_00000152974637232376403990000000745553114949063089_" class="st3" d="M438.99-452.36
			c1.82-2.34,42.46-32.04,42.46-32.04s1.89,29.83,3.45,28.46c1.56-1.37,4.3-3.32,4.3-3.32l28.72,44.54l-37.51-28l-11.2,6.51
			l3.91-7.55l-14.27,6.51l4.37-7.29l-4.37,0.26l3.33-5.27l2.34-5.93l-16.93,10.16l7.74-11.72L438.99-452.36z"/>
		<path id="XMLID_00000075859971743644314570000004518417072985001907_" class="st3" d="M320.72-419.45
			c1.3-0.52,42.98-27.87,42.98-27.87l-37.25,40.12c0,0,2.6-7.29,1.56-6.51c-1.04,0.78-18.65,12.85-18.65,12.85l4.58-13.37
			L320.72-419.45z"/>
		<path id="XMLID_00000139259722763229717810000002417178453530289567_" class="st3" d="M611.67-419.99l-57.44-44.36l3.91,16.8
			l-3.91,22.27l16.02-13.68l3.13,5.08h4.69l20.32,10.94c0,0-2.15-3.66,0.7-3.36C601.94-426,611.67-419.99,611.67-419.99z"/>
	</g>
	<text transform="matrix(1 0 0 1 358.9092 -334.9997)" class="st6 st8" style="display:inline;fill:#FFFFFF; font-size:56.8218px;">ADSOC</text>
	<g id="XMLID_00000147913761566056184360000001225204622181474947_" class="st1">
		<polygon id="XMLID_00000170967322014613415470000001793927656119265717_" class="st3" points="365.95,-312.69 369.19,-306.76 
			375.11,-303.52 369.19,-300.28 365.95,-294.35 362.7,-300.28 356.78,-303.52 362.7,-306.76 		"/>
		<polygon id="XMLID_00000008863520290617734790000012287772823936760246_" class="st3" points="581.59,-312.69 584.83,-306.76 
			590.75,-303.52 584.83,-300.28 581.59,-294.35 578.34,-300.28 572.42,-303.52 578.34,-306.76 		"/>
	</g>
	
		<text transform="matrix(1 0 0 1 426.0454 -291.6052)" class="st6" style="display:inline;fill:#FFFFFF; font-size:29.1787px; letter-spacing:2;">UNSW</text>
</g>
<g>
	<g id="XMLID_00000057106182840875634980000018187761439322005400_">
		<polyline id="XMLID_00000096764979763225839800000012568019957647072684_" class="st4" points="91.99,-363.05 206.72,-442.54 
			253.75,-414.32 328.99,-461.35 377.95,-418.89 394.83,-433.13 404.24,-423.73 423.05,-433.13 510.81,-370.34 		"/>
		<path id="XMLID_00000078014561978801314990000004342834938055156372_" class="st3" d="M260.09-390.9l2.79,12.54l-56.43-44.94
			c0,0,21.95,49.81,21.95,51.9c0,2.09,0,22.29,0,22.29l10.1-11.5l39.92,23.29v-9.41l37.62,9.41L260.09-390.9z"/>
		<path id="XMLID_00000067197704709252360850000000330091308112618170_" class="st3" d="M269.52-400.85
			c2.44-3.14,56.78-42.85,56.78-42.85s2.53,39.89,4.62,38.06c2.09-1.83,5.75-4.44,5.75-4.44l38.41,59.57l-50.16-37.45l-14.98,8.71
			l5.23-10.1l-19.08,8.71l5.84-9.75l-5.84,0.35l4.45-7.05l3.14-7.93l-22.64,13.59l10.35-15.68L269.52-400.85z"/>
		<path id="XMLID_00000141429271597191503580000003755753102016474798_" class="st3" d="M111.37-356.83
			c1.74-0.7,57.48-37.27,57.48-37.27l-49.81,53.65c0,0,3.48-9.75,2.09-8.71c-1.39,1.05-24.94,17.18-24.94,17.18l6.13-17.88
			L111.37-356.83z"/>
		<path id="XMLID_00000155844278788000305680000002554360023137268879_" class="st3" d="M500.45-357.56l-76.81-59.32l5.23,22.47
			l-5.23,29.78l21.42-18.29l4.18,6.79h6.27l27.17,14.63c0,0-2.87-4.89,0.94-4.5C487.43-365.6,500.45-357.56,500.45-357.56z"/>
	</g>
	<text transform="matrix(1 0 0 1 569.6631 -423.2976)"><tspan x="0" y="0" class="st3 st6 st8" style="font-size:50.8167px;">UNSW</tspan><tspan x="0" y="77.03" class="st3 st6 st10" style="font-size:64.1896px;">ADSOC</tspan></text>
</g>
<g>
	<g id="XMLID_00000031200833123257335720000006932392517651849617_">
		<polyline id="XMLID_00000047033344843341564920000007637275114766397868_" class="st5" points="75.62,250.74 195.41,167.74 
			244.52,197.2 323.08,148.1 374.2,192.43 391.83,177.56 401.65,187.38 421.29,177.56 512.93,243.12 		"/>
		<path id="XMLID_00000113323747161891007870000002140903136104593567_" d="M251.14,221.65l2.91,13.09l-58.92-46.92
			c0,0,22.92,52.01,22.92,54.2s0,23.28,0,23.28l10.55-12l41.68,24.32v-9.82l39.28,9.82L251.14,221.65z"/>
		<path id="XMLID_00000182501410674265636560000017892094047176865171_" d="M260.99,211.27c2.55-3.27,59.29-44.74,59.29-44.74
			s2.64,41.65,4.82,39.74c2.18-1.91,6-4.64,6-4.64l40.1,62.2l-52.38-39.1l-15.64,9.09l5.46-10.55l-19.92,9.09l6.1-10.18l-6.1,0.36
			l4.65-7.37l3.27-8.28l-23.64,14.19l10.81-16.37L260.99,211.27z"/>
		<path id="XMLID_00000054968320711703807130000005660493197060381101_" d="M95.85,257.23c1.82-0.73,60.02-38.92,60.02-38.92
			l-52.01,56.01c0,0,3.64-10.18,2.18-9.09C104.58,266.32,80,283.17,80,283.17l6.4-18.67L95.85,257.23z"/>
		<path id="XMLID_00000142875193065566389660000012911564999514946703_" d="M502.11,256.47l-80.2-61.94l5.46,23.46l-5.46,31.1
			l22.37-19.1l4.36,7.09h6.55l28.37,15.28c0,0-3-5.11,0.98-4.7C488.52,248.08,502.11,256.47,502.11,256.47z"/>
	</g>
	<text transform="matrix(1 0 0 1 574.3819 187.8274)"><tspan x="0" y="0" class="st6 st7 st8">UNSW</tspan><tspan x="0" y="80.43" class="st6 st9 st10">ADSOC</tspan></text>
</g>
</svg>
