<?xml version="1.0" encoding="utf-8"?>
<!-- Generator: Adobe Illustrator 26.4.0, SVG Export Plug-In . SVG Version: 6.00 Build 0)  -->
<svg version="1.1" id="Layer_1" xmlns="http://www.w3.org/2000/svg" xmlns:xlink="http://www.w3.org/1999/xlink" x="0px" y="0px"
	 viewBox="0 0 925.65 400" style="enable-background:new 0 0 925.65 400;" xml:space="preserve">
<style type="text/css">
	.st0{display:none;}
	.st1{display:inline;}
	.st2{fill:none;stroke:#FFFFFF;stroke-width:4;stroke-miterlimit:10;}
	.st3{fill:#FFFFFF;}
	.st4{fill:none;stroke:#FFFFFF;stroke-width:10;stroke-miterlimit:10;}
	.st5{fill:none;stroke:#000000;stroke-width:10;stroke-miterlimit:10;}
	.st6{font-family:'LEMONMILK-Medium';}
	.st7{font-size:62.7305px;}
	.st8{letter-spacing:3;}
	.st9{font-size:79.2384px;}
	.st10{letter-spacing:4;}
</style>
<rect y="-638.69" class="st0" width="925.65" height="500"/>
<g id="DESIGN2-B" class="st0">
	<g id="XMLID_00000060748918376519124550000004854163851397549202_" class="st1">
		<polyline id="XMLID_00000028319857965589777010000002191736406715971736_" class="st2" points="306.23,-424.1 392.03,-483.54 
			427.19,-462.44 483.46,-497.6 520.06,-465.86 532.69,-476.51 539.72,-469.47 553.79,-476.51 619.42,-429.55 		"/>
		<path id="XMLID_00000102522196261140245560000010329651912721935025_" class="st3" d="M431.94-444.93l2.08,9.38l-42.2-33.6
			c0,0,16.41,37.25,16.41,38.81s0,16.67,0,16.67l7.55-8.6l29.85,17.42v-7.03l28.13,7.03L431.94-444.93z"/>
		<path id="XMLID_00000152974637232376403990000000745553114949063089_" class="st3" d="M438.99-452.36
			c1.82-2.34,42.46-32.04,42.46-32.04s1.89,29.83,3.45,28.46s4.3-3.32,4.3-3.32l28.72,44.54l-37.51-28l-11.2,6.51l3.91-7.55
			l-14.27,6.51l4.37-7.29l-4.37,0.26l3.33-5.27l2.34-5.93l-16.93,10.16l7.74-11.72L438.99-452.36z"/>
		<path id="XMLID_00000075859971743644314570000004518417072985001907_" class="st3" d="M320.72-419.45
			c1.3-0.52,42.98-27.87,42.98-27.87l-37.25,40.12c0,0,2.6-7.29,1.56-6.51s-18.65,12.85-18.65,12.85l4.58-13.37L320.72-419.45z"/>
		<path id="XMLID_00000139259722763229717810000002417178453530289567_" class="st3" d="M611.67-419.99l-57.44-44.36l3.91,16.8
			l-3.91,22.27l16.02-13.68l3.13,5.08h4.69l20.32,10.94c0,0-2.15-3.66,0.7-3.36C601.94-426,611.67-419.99,611.67-419.99z"/>
	</g>
	
		<text transform="matrix(1 0 0 1 358.9092 -334.9997)" class="st6" style="display:inline;fill:#FFFFFF; font-size:56.8218px; letter-spacing:2;">ADSOC</text>
	<g id="XMLID_00000147913761566056184360000001225204622181474947_" class="st1">
		<polygon id="XMLID_00000170967322014613415470000001793927656119265717_" class="st3" points="365.95,-312.69 369.19,-306.76 
			375.11,-303.52 369.19,-300.28 365.95,-294.35 362.7,-300.28 356.78,-303.52 362.7,-306.76 		"/>
		<polygon id="XMLID_00000008863520290617734790000012287772823936760246_" class="st3" points="581.59,-312.69 584.83,-306.76 
			590.75,-303.52 584.83,-300.28 581.59,-294.35 578.34,-300.28 572.42,-303.52 578.34,-306.76 		"/>
	</g>
	
		<text transform="matrix(1 0 0 1 426.0454 -291.6052)" class="st6" style="display:inline;fill:#FFFFFF; font-size:29.1787px; letter-spacing:1;">UNSW</text>
</g>
<g>
	<g id="XMLID_00000057106182840875634980000018187761439322005400_">
		<polyline id="XMLID_00000096764979763225839800000012568019957647072684_" class="st4" points="91.99,-363.05 206.72,-442.54 
			253.75,-414.32 328.99,-461.35 377.95,-418.89 394.83,-433.13 404.24,-423.73 423.05,-433.13 510.81,-370.34 		"/>
		<path id="XMLID_00000078014561978801314990000004342834938055156372_" class="st3" d="M260.09-390.9l2.79,12.54l-56.43-44.94
			c0,0,21.95,49.81,21.95,51.9s0,22.29,0,22.29l10.1-11.5l39.92,23.29v-9.41l37.62,9.41L260.09-390.9z"/>
		<path id="XMLID_00000067197704709252360850000000330091308112618170_" class="st3" d="M269.52-400.85
			c2.44-3.14,56.78-42.85,56.78-42.85s2.53,39.89,4.62,38.06c2.09-1.83,5.75-4.44,5.75-4.44l38.41,59.57l-50.16-37.45l-14.98,8.71
			l5.23-10.1l-19.08,8.71l5.84-9.75l-5.84,0.35l4.45-7.05l3.14-7.93l-22.64,13.59l10.35-15.68L269.52-400.85z"/>
		<path id="XMLID_00000141429271597191503580000003755753102016474798_" class="st3" d="M111.37-356.83
			c1.74-0.7,57.48-37.27,57.48-37.27l-49.81,53.65c0,0,3.48-9.75,2.09-8.71c-1.39,1.05-24.94,17.18-24.94,17.18l6.13-17.88
			L111.37-356.83z"/>
		<path id="XMLID_00000155844278788000305680000002554360023137268879_" class="st3" d="M500.45-357.56l-76.81-59.32l5.23,22.47
			l-5.23,29.78l21.42-18.29l4.18,6.79h6.27l27.17,14.63c0,0-2.87-4.89,0.94-4.5C487.43-365.6,500.45-357.56,500.45-357.56z"/>
	</g>
	<text transform="matrix(1 0 0 1 569.6631 -423.2976)" class="st3 st6" style="font-size:50.8167px; letter-spacing:2;">UNSW</text>
	<text transform="matrix(1 0 0 1 569.6631 -346.2676)" class="st3 st6 st8" style="font-size:64.1896px;">ADSOC</text>
</g>
<g>
	<g id="XMLID_00000031200833123257335720000006932392517651849617_">
		<polyline id="XMLID_00000047033344843341564920000007637275114766397868_" class="st5" points="5.39,261.45 147.01,163.32 
			205.07,198.15 297.95,140.1 358.39,192.51 379.23,174.93 390.84,186.54 414.06,174.93 522.4,252.44 		"/>
		<path id="XMLID_00000113323747161891007870000002140903136104593567_" d="M212.9,227.06l3.44,15.48l-69.66-55.47
			c0,0,27.1,61.49,27.1,64.08s0,27.52,0,27.52l12.47-14.19l49.28,28.75v-11.61l46.44,11.61L212.9,227.06z"/>
		<path id="XMLID_00000182501410674265636560000017892094047176865171_" d="M224.54,214.78c3.01-3.87,70.09-52.89,70.09-52.89
			s3.12,49.24,5.7,46.98c2.58-2.26,7.09-5.49,7.09-5.49l47.41,73.53l-61.93-46.23l-18.49,10.75l6.45-12.47l-23.55,10.75l7.21-12.04
			l-7.21,0.43l5.5-8.71l3.87-9.79l-27.95,16.78l12.78-19.35L224.54,214.78z"/>
		<path id="XMLID_00000054968320711703807130000005660493197060381101_" d="M29.31,269.12c2.15-0.86,70.96-46.01,70.96-46.01
			l-61.49,66.22c0,0,4.3-12.04,2.58-10.75s-30.79,21.21-30.79,21.21l7.57-22.07L29.31,269.12z"/>
		<path id="XMLID_00000142875193065566389660000012911564999514946703_" d="M509.6,268.22l-94.81-73.23l6.45,27.74l-6.45,36.77
			l26.45-22.58l5.15,8.38h7.74l33.54,18.06c0,0-3.55-6.04,1.16-5.56C493.54,258.3,509.6,268.22,509.6,268.22z"/>
	</g>
	<text transform="matrix(1 0 0 1 595.0449 187.0688)" class="st6 st7 st8">UNSW</text>
	<text transform="matrix(1 0 0 1 595.0449 282.1562)" class="st6 st9 st10">ADSOC</text>
</g>
</svg>
