<?xml version="1.0" encoding="utf-8"?>
<!-- Generator: Adobe Illustrator 26.4.0, SVG Export Plug-In . SVG Version: 6.00 Build 0)  -->
<svg version="1.1" id="Layer_1" xmlns="http://www.w3.org/2000/svg" xmlns:xlink="http://www.w3.org/1999/xlink" x="0px" y="0px"
	 viewBox="0 0 242.2 124" style="enable-background:new 0 0 242.2 124;" xml:space="preserve">
<path d="M56.3,21.6c0-10.4-8.4-18.8-18.8-18.8H0v56.3h37.5c10.4,0,18.8-8.4,18.8-18.8c0-3.3-0.9-6.5-2.5-9.4
	C55.5,28.1,56.3,24.9,56.3,21.6z"/>
<polygon points="100.6,2.8 60.8,2.8 60.8,59.1 117.1,59.1 117.1,19.4 100.6,19.4 "/>
<path d="M183.1,31c0,17.1-13.9,31-31,31s-31-13.9-31-31s13.9-31,31-31S183.1,13.9,183.1,31L183.1,31"/>
<path d="M242.2,2.8H214c-15.6,0-28.2,12.6-28.2,28.2s12.6,28.2,28.2,28.2l0,0h28.2V2.8z"/>
<polygon points="61.3,122.4 93.8,66.1 126.3,122.4 "/>
<polygon points="56.3,66.1 0,66.1 0,66.1 0,122.4 0,122.4 56.3,122.4 56.3,122.4 "/>
<path d="M214,66.1c-15.6,0-28.2,12.6-28.2,28.2v28.2H214c15.6,0,28.2-12.6,28.2-28.2l0,0V66.1H214z"/>
<path d="M124,95.8L124,95.8c0,15.6,12.6,28.2,28.2,28.2s28.2-12.6,28.2-28.2V66.1H124V95.8z"/>
</svg>
