<?xml version="1.0" encoding="utf-8"?>
<!-- Generator: Adobe Illustrator 26.4.0, SVG Export Plug-In . SVG Version: 6.00 Build 0)  -->
<svg version="1.1" id="Layer_1" xmlns="http://www.w3.org/2000/svg" xmlns:xlink="http://www.w3.org/1999/xlink" x="0px" y="0px"
	 viewBox="0 0 241.28 103.3" style="enable-background:new 0 0 241.28 103.3;" xml:space="preserve">
<style type="text/css">
	.st0{fill:#040504;stroke:#000000;stroke-miterlimit:10;}
	.st1{fill:#FFFFFE;}
</style>
<g id="Page-1">
	<g id="brand-logo">
		<path id="Fill-61_00000057137891629008062980000003681932698681666193_" class="st0" d="M237.24,0.71l-0.06,0.01
			c-2.26,0.53-14.5,3.32-34.11,6.08c-27.07,3.81-54.84,5.74-82.54,5.74c-0.1,0-0.2,0-0.31,0c-0.1,0-0.2,0-0.31,0
			c-27.7,0-55.47-1.93-82.54-5.74C17.77,4.05,5.52,1.26,3.27,0.73L3.21,0.71L0,0v103.3l3.27-0.72c2.31-0.53,14.81-3.33,34.62-6.08
			c27.23-3.79,54.94-5.72,82.34-5.73c27.41,0.01,55.11,1.94,82.34,5.73c19.8,2.76,32.31,5.55,34.62,6.08l3.27,0.72V0L237.24,0.71z"
			/>
		<path id="Fill-51" class="st1" d="M40.67,53.45c0-1.64,0-3.27,0-4.91c-2.02-0.03-4.03-0.07-6.05-0.11c0-2.69,0-5.38,0-8.07
			c2.54,0.18,5.08,0.34,7.63,0.51c0-1.61,0-3.21,0-4.82c-4.16-0.38-8.32-0.8-12.48-1.24c0,11.07,0,22.15,0,33.22
			c4.17-0.45,8.34-0.86,12.52-1.25c0-1.63,0-3.27,0-4.9c-2.56,0.16-5.11,0.33-7.66,0.51c0-2.95,0-5.9,0-8.85
			C36.64,53.5,38.65,53.47,40.67,53.45"/>
		<path id="Fill-52" class="st1" d="M76.84,46.99c0-0.91,0-1.82,0-2.73c0-3.66-2.81-6.26-6.99-6.54c-4.52-0.3-7.55,2.3-7.55,6.52
			c0,4.75,0,9.5,0,14.26c0,4.47,2.81,6.91,7.52,6.6c4.2-0.27,7.03-2.97,7.03-6.76c0-0.84,0-1.68,0-2.51
			c-1.47,0.03-2.94,0.05-4.42,0.08c0,0.75,0,1.51,0,2.26c0,1.48-1.02,2.51-2.54,2.57c-1.66,0.07-2.61-0.89-2.61-2.64
			c0-4.53,0-9.05,0-13.58c0-1.68,0.94-2.6,2.58-2.53c1.56,0.07,2.57,1.08,2.57,2.58c0,0.78,0,1.56,0,2.34
			C73.9,46.94,75.37,46.96,76.84,46.99"/>
		<path id="Fill-53" class="st1" d="M85.66,54.31c0.62-3.37,1.25-6.72,1.87-10.05c0.1,0,0.2,0,0.29,0.01
			c0.01,0.04,0.02,0.09,0.02,0.13c0.6,3.37,1.2,6.71,1.8,10.04c-1.34,0.01-2.68,0.02-4.02,0.04C85.64,54.43,85.65,54.37,85.66,54.31
			z M90.46,58.12c0,0.01,0,0.01,0,0.02c0.36,1.85,0.73,3.69,1.09,5.53c1.54-0.05,3.09-0.1,4.63-0.15
			c-1.73-8.04-3.45-16.17-5.18-24.43c-2.24-0.08-4.48-0.16-6.72-0.26c-1.8,8.29-3.6,16.74-5.4,25.36c1.61-0.08,3.22-0.15,4.83-0.22
			c0.36-1.92,0.73-3.83,1.09-5.73C86.7,58.19,88.58,58.16,90.46,58.12z"/>
		<path id="Fill-54" class="st1" d="M103.85,50.93c0-2.59,0-5.19,0-7.78c0.7,0.01,1.39,0.02,2.09,0.03
			c1.76,0.02,2.54,1.15,2.54,3.67c0,2.75-0.84,4.08-2.58,4.08C105.22,50.93,104.53,50.93,103.85,50.93z M113.28,46.77
			c0-4.68-2.21-7.17-6.4-7.24c-2.65-0.04-5.29-0.1-7.94-0.16c0,8.03,0,16.05,0,24.08c1.64-0.04,3.27-0.08,4.91-0.11
			c0-2.94,0-5.87,0-8.81c0.95,0,1.89-0.01,2.84-0.01C111.06,54.49,113.28,51.89,113.28,46.77z"/>
		<path id="Fill-55" class="st1" d="M127.05,52.95c0-1.24,0-2.49,0-3.73c-2.02,0-4.05,0-6.07,0c0-1.97,0-3.93,0-5.9
			c2.55,0,5.1-0.01,7.66-0.03c0-1.23,0-2.47,0-3.7c-4.18,0.04-8.35,0.05-12.53,0.03c0,7.85,0,15.71,0,23.56
			c4.19-0.02,8.38-0.01,12.57,0.03c0-1.26,0-2.51,0-3.77c-2.56-0.02-5.13-0.02-7.69-0.03c0-2.16,0-4.31,0-6.47
			C123.01,52.95,125.03,52.95,127.05,52.95"/>
		<path id="Fill-56" class="st1" d="M154.12,63.83c0-8.28,0-16.57,0-24.85c-1.64,0.06-3.27,0.12-4.91,0.18c0,3.35,0,6.7,0,10.05
			c-1.69,0.01-3.39,0.02-5.08,0.03c0-3.31,0-6.62,0-9.92c-1.64,0.05-3.27,0.09-4.91,0.12c0,7.98,0,15.96,0,23.94
			c1.64,0.04,3.27,0.08,4.91,0.12c0-3.39,0-6.78,0-10.16c1.69,0.01,3.39,0.02,5.08,0.02c0,3.43,0,6.86,0,10.29
			C150.85,63.71,152.48,63.77,154.12,63.83"/>
		<path id="Fill-57" class="st1" d="M188.09,36.97c0,5.41,0,10.83,0,16.24c-0.1,0-0.2,0-0.3,0c-1.99-5.42-3.99-10.67-5.98-15.76
			c-1.63,0.12-3.27,0.23-4.9,0.34c0,9.09,0,18.17,0,27.26c1.43,0.09,2.87,0.19,4.3,0.3c0-5.83,0-11.65,0-17.48c0.1,0,0.2,0,0.3-0.01
			c2.21,5.8,4.42,11.79,6.62,18.01c1.42,0.11,2.84,0.23,4.25,0.35c0-9.86,0-19.73,0-29.59C190.96,36.74,189.53,36.86,188.09,36.97"
			/>
		<path id="Fill-58" class="st1" d="M211.36,34.8c-5.01,0.54-10.02,1.03-15.04,1.47c0,1.58,0,3.16,0,4.74
			c1.69-0.1,3.38-0.21,5.07-0.32c0,8.77,0,17.54,0,26.31c1.64,0.16,3.29,0.32,4.93,0.48c0-9.04,0-18.09,0-27.13
			c1.68-0.12,3.35-0.24,5.03-0.36C211.36,38.28,211.36,36.54,211.36,34.8"/>
		<path id="Fill-59" class="st1" d="M55.26,50.41c-0.81-0.77-1.63-1.54-2.44-2.33c-1.28-1.33-2.72-3.19-2.72-4.81
			c0-1.66,0.81-2.63,2.12-2.55c1.81,0.11,2.27,1.86,2.47,3.77c1.43,0.05,2.86,0.11,4.29,0.16c-0.29-6.34-3.69-7.96-6.49-8.2
			c-3.19-0.28-6.9,1.38-6.9,7.09c0,2.96,1.14,5.35,3.82,8.15c0.85,0.88,1.71,1.75,2.56,2.61c1.68,1.72,2.53,3.15,2.53,4.72
			c0,0.86-0.21,2.87-2.16,2.98c-1.92,0.12-2.39-1.75-2.58-3.66c-1.5,0.06-2.99,0.12-4.49,0.18c-0.03,0-0.06,0-0.09,0.01
			c0.31,5.4,2.91,8.23,7.12,7.85c4.11-0.37,6.98-3.57,6.98-7.84C59.28,55.65,58.11,53.36,55.26,50.41"/>
		<path id="Fill-60" class="st1" d="M168.13,38.32c0,6.47,0,12.94,0,19.41c0,1.73-1,2.9-2.61,2.83c-1.61-0.06-2.61-1.28-2.61-2.97
			c0-6.33,0-12.67,0-19c-1.63,0.08-3.27,0.16-4.9,0.23c0,6.19,0,12.38,0,18.58c0,4.31,2.32,7.07,7.52,7.37
			c5.2,0.31,7.51-2.38,7.51-6.99c0-6.58,0-13.16,0-19.75C171.4,38.13,169.77,38.22,168.13,38.32"/>
		<path id="Fill-61" class="st1" d="M218.08,76.79l-0.23-0.03c-10.56-1.43-22.56-2.72-34.7-3.72c-21.1-1.74-42.32-2.62-63.07-2.63
			C99.32,70.41,78.1,71.3,57,73.04c-12.15,1-24.15,2.29-34.7,3.72l-0.23,0.03V26.55l0.23,0.03c10.44,1.43,22.34,2.72,34.41,3.72
			c21.05,1.74,42.28,2.63,63.1,2.63c0.09,0,0.18,0,0.26,0c0.09,0,0.18,0,0.26,0c20.82,0,42.05-0.88,63.1-2.63
			c12.07-1,23.97-2.29,34.41-3.72l0.23-0.03V76.79z M220.09,21.27l-0.05,0.01c-1.93,0.32-12.39,1.98-29.15,3.63
			c-23.14,2.27-46.88,3.42-70.56,3.42c-0.09,0-0.18,0-0.26,0c-0.09,0-0.18,0-0.26,0c-23.68,0-47.42-1.15-70.56-3.42
			c-16.76-1.65-27.23-3.31-29.15-3.63l-0.05-0.01l-2.75-0.43v61.63l2.79-0.43c1.97-0.32,12.66-1.99,29.59-3.63
			c23.28-2.26,46.96-3.41,70.38-3.42c23.43,0.01,47.1,1.16,70.38,3.42c16.93,1.64,27.62,3.31,29.59,3.63l2.79,0.43V20.85
			L220.09,21.27z"/>
	</g>
</g>
</svg>
