<?xml version="1.0" encoding="utf-8"?>
<!-- Generator: Adobe Illustrator 26.4.0, SVG Export Plug-In . SVG Version: 6.00 Build 0)  -->
<svg version="1.1" id="ee7dec7d-bf64-4060-8088-3f0bd2b5e88a"
	 xmlns="http://www.w3.org/2000/svg" xmlns:xlink="http://www.w3.org/1999/xlink" x="0px" y="0px" viewBox="0 0 493.51 132.35"
	 style="enable-background:new 0 0 493.51 132.35;" xml:space="preserve">
<style type="text/css">
	.st0{fill:#231F20;}
</style>
<path class="st0" d="M129.4,124.53c-7.86-0.08-14.19-6.47-14.21-14.33V95.89h6.65c1.82,0.1,3.38-1.29,3.48-3.11
	c0.1-1.82-1.29-3.38-3.11-3.48c-0.12-0.01-0.24-0.01-0.36,0h-6.65V78.45c0.1-1.82-1.29-3.38-3.11-3.48
	c-1.82-0.1-3.38,1.29-3.48,3.11c-0.01,0.12-0.01,0.24,0,0.36v31.75c0.04,11.47,9.28,20.78,20.75,20.92c1.82-0.1,3.21-1.66,3.11-3.48
	c-0.09-1.68-1.43-3.02-3.11-3.11 M96.13,89.3h-0.11c-5.1,0.14-9.97,2.14-13.69,5.63v-2.35c0-1.82-1.47-3.29-3.29-3.29
	s-3.29,1.47-3.29,3.29v35.24c0,1.82,1.47,3.29,3.29,3.29s3.29-1.47,3.29-3.29l0,0v-17.75c0.06-7.7,6.2-13.97,13.9-14.19
	c1.82-0.03,3.27-1.52,3.24-3.34C99.44,90.73,97.94,89.28,96.13,89.3 M41.82,88.53c-2.23-1.12-4.95-0.23-6.08,2L22.17,117.7
	L8.6,90.56c-1.05-2.27-3.75-3.26-6.01-2.2s-3.26,3.75-2.2,6.01c0.04,0.08,0.08,0.16,0.12,0.24l17.62,35.24
	c1.12,2.24,3.84,3.14,6.08,2.02c0.87-0.44,1.58-1.15,2.02-2.02l17.62-35.24c1.12-2.23,0.23-4.95-2-6.08 M57.1,89.29
	c-1.82,0-3.29,1.47-3.29,3.29l0,0v35.24c0,1.82,1.47,3.29,3.29,3.29c1.82,0,3.29-1.47,3.29-3.29l0,0V92.58
	C60.39,90.77,58.92,89.29,57.1,89.29C57.1,89.29,57.1,89.29,57.1,89.29 M314.42,88.06c-4.48,0.13-8.81,1.61-12.42,4.26
	c-0.16-2.5-2.32-4.39-4.82-4.22c-2.37,0.16-4.21,2.11-4.23,4.48v35.24c0,2.5,2.02,4.53,4.53,4.53c2.5,0,4.53-2.02,4.53-4.53
	c0,0,0,0,0-0.01v-17.73c0-7.06,5.63-12.83,12.69-13c2.5-0.07,4.47-2.16,4.39-4.66c-0.07-2.5-2.16-4.47-4.66-4.39 M172.28,89.29
	c-1.81,0.01-3.27,1.48-3.27,3.29v17.78c-0.09,9.51-6.17,14-12.18,14.16c-6-0.2-12.09-4.65-12.19-14.16V92.58
	c-0.1-1.82-1.66-3.21-3.48-3.11c-1.68,0.09-3.02,1.43-3.11,3.11v17.82c-0.05,5.19,1.72,10.24,5,14.27c3.41,4,8.37,6.35,13.63,6.44
	h0.35c5.26-0.09,10.22-2.44,13.63-6.44c3.28-4.03,5.05-9.08,5-14.27V92.58c0-1.82-1.47-3.29-3.29-3.29 M493.49,109.99
	c0.05-5.19-1.72-10.24-5-14.27c-3.41-4-8.37-6.35-13.63-6.44h-0.35c-5.26,0.09-10.22,2.44-13.63,6.44c-0.63,0.74-1.19,1.52-1.7,2.35
	c-0.51-0.83-1.07-1.61-1.7-2.35c-3.41-4-8.37-6.35-13.63-6.44h-0.35c-4.45,0.09-8.71,1.8-12,4.79v-1.5
	c-0.1-1.82-1.66-3.21-3.48-3.11c-1.68,0.09-3.02,1.43-3.11,3.11v35.24c-0.1,1.82,1.29,3.38,3.11,3.48c1.82,0.1,3.38-1.29,3.48-3.11
	c0.01-0.12,0.01-0.24,0-0.36v-17.77c0.09-9.51,6.18-14,12.18-14.16c6,0.2,12.09,4.65,12.19,14.16v17.78
	c0.1,1.82,1.66,3.21,3.48,3.11c1.68-0.09,3.02-1.43,3.11-3.11v-17.78c0.09-9.51,6.18-14,12.18-14.16h0.05
	c6,0.2,12.09,4.65,12.19,14.16v17.78c0.1,1.82,1.66,3.21,3.48,3.11c1.68-0.09,3.02-1.43,3.11-3.11L493.49,109.99z M256.13,124.53
	c-7.86-0.09-14.19-6.47-14.21-14.33V78.45c0.1-1.82-1.29-3.38-3.11-3.48c-1.82-0.1-3.38,1.29-3.48,3.11c-0.01,0.12-0.01,0.24,0,0.36
	v31.75c0.04,11.47,9.28,20.78,20.75,20.92c1.82-0.1,3.21-1.66,3.11-3.48c-0.09-1.68-1.43-3.02-3.11-3.11 M344.3,89.34
	c-11.43,0-20.7,9.27-20.7,20.7s9.27,20.7,20.7,20.7c11.43,0,20.7-9.27,20.7-20.7C364.99,98.61,355.73,89.35,344.3,89.34
	 M344.3,124.14c-7.79,0-14.11-6.32-14.11-14.11s6.32-14.11,14.11-14.11c7.79,0,14.11,6.32,14.11,14.11c0,0,0,0.01,0,0.01
	C358.4,117.83,352.08,124.13,344.3,124.14 M394.48,89.34c-11.43-0.01-20.7,9.26-20.71,20.69c-0.01,11.43,9.26,20.7,20.69,20.71
	s20.7-9.26,20.71-20.69c0,0,0-0.01,0-0.01C415.16,98.62,405.91,89.36,394.48,89.34 M394.48,124.14c-7.79,0.01-14.11-6.31-14.12-14.1
	c-0.01-7.79,6.31-14.11,14.1-14.12c7.79-0.01,14.11,6.31,14.12,14.1c0,0.01,0,0.01,0,0.02
	C408.57,117.82,402.27,124.13,394.48,124.14 M222.58,89.34c-1.82,0-3.3,1.48-3.3,3.3v0v2.27c-8.35-7.8-21.45-7.36-29.26,0.99
	c-7.8,8.35-7.36,21.45,0.99,29.26c7.95,7.43,20.31,7.43,28.26,0v2.66c-0.1,1.82,1.29,3.38,3.11,3.48c1.82,0.1,3.38-1.29,3.48-3.11
	c0.01-0.12,0.01-0.24,0-0.36V92.64c0.01-1.82-1.46-3.29-3.28-3.3C222.58,89.34,222.58,89.34,222.58,89.34 M205.18,124.14
	c-7.79,0.01-14.11-6.31-14.12-14.1c-0.01-7.79,6.31-14.11,14.1-14.12c7.79-0.01,14.11,6.31,14.12,14.1c0,0.01,0,0.01,0,0.02
	C219.27,117.82,212.96,124.13,205.18,124.14 M338.85,53.41c0,0-6.45,10.32-9.26,27h44.29c1.94-5.94,5.89-8.83,10.75-5.15
	c2.76,2.09,4.93,3.76,6.71,5.15h20.15c-0.15-0.21-0.31-0.42-0.49-0.63c-7.81-9.42-31.7-25.91-48.29-32.87
	c12.54,2.9,25.05-4.91,27.95-17.45c2.9-12.54-4.91-25.05-17.45-27.95c-1.78-0.41-3.6-0.61-5.43-0.6c-3.04,0-6.04,0.59-8.85,1.74
	l-4.23-1.9c-1.13-0.5-2.36-0.75-3.6-0.75c-3.6,0-6.86,2.13-8.3,5.43l-2.27,5.22c-1.88,4.31-0.14,9.35,4,11.58
	c-0.05,0.64-0.08,1.28-0.08,1.94c-0.01,6.93,3.08,13.51,8.42,17.93C340.1,33.69,332,18.21,327.55,9
	c-3.64-7.64-14.69-1.51-12.62,5.65c3.34,11.54,11,25,23.92,38.81 M347,18.26c-0.96-0.42-1.71-1.21-2.1-2.18
	c-0.38-0.97-0.36-2.05,0.06-3l2.27-5.22c0.91-1.97,3.22-2.85,5.21-2l0.8,0.35l20.55,9c1.99,0.89,2.9,3.2,2.05,5.21l-2.27,5.21
	c-0.64,1.44-2.06,2.37-3.63,2.38c-0.54,0-1.08-0.11-1.58-0.33L347,18.26z"/>
</svg>
